<svg xmlns="http://www.w3.org/2000/svg" style="display: none;">
    <symbol xmlns="http://www.w3.org/2000/svg" id="heart" viewBox="0 0 16 16"><path fill-rule="evenodd" d="M7.655 14.916L8 14.25l.345.666a.752.752 0 01-.69 0zm0 0L8 14.25l.345.666.002-.001.006-.003.018-.01a7.643 7.643 0 00.31-.17 22.08 22.08 0 003.433-2.414C13.956 10.731 16 8.35 16 5.5 16 2.836 13.914 1 11.75 1 10.203 1 8.847 1.802 8 3.02 7.153 1.802 5.797 1 4.25 1 2.086 1 0 2.836 0 5.5c0 2.85 2.045 5.231 3.885 6.818a22.075 22.075 0 003.744 2.584l.018.01.006.003h.002z"></path></symbol>
    <symbol xmlns="http://www.w3.org/2000/svg" id="user" viewBox="0 0 24 24"><path fill-rule="evenodd" d="M12 2.5a5.5 5.5 0 00-3.096 10.047 9.005 9.005 0 00-5.9 8.18.75.75 0 001.5.045 7.5 7.5 0 0114.993 0 .75.75 0 101.499-.044 9.005 9.005 0 00-5.9-8.181A5.5 5.5 0 0012 2.5zM8 8a4 4 0 118 0 4 4 0 01-8 0z"></path></symbol>
    <symbol xmlns="http://www.w3.org/2000/svg" id="github" viewBox="0 0 16 16"><path fill-rule="evenodd" d="M8 0C3.58 0 0 3.58 0 8c0 3.54 2.29 6.53 5.47 7.59.4.07.55-.17.55-.38 0-.19-.01-.82-.01-1.49-2.01.37-2.53-.49-2.69-.94-.09-.23-.48-.94-.82-1.13-.28-.15-.68-.52-.01-.53.63-.01 1.08.58 1.23.82.72 1.21 1.87.87 2.33.66.07-.52.28-.87.51-1.07-1.78-.2-3.64-.89-3.64-3.95 0-.87.31-1.59.82-2.15-.08-.2-.36-1.02.08-2.12 0 0 .67-.21 2.2.82.64-.18 1.32-.27 2-.27.68 0 1.36.09 2 .27 1.53-1.04 2.2-.82 2.2-.82.44 1.1.16 1.92.08 2.12.51.56.82 1.27.82 2.15 0 3.07-1.87 3.75-3.65 3.95.29.25.54.73.54 1.48 0 1.07-.01 1.93-.01 2.2 0 .21.15.46.55.38A8.013 8.013 0 0016 8c0-4.42-3.58-8-8-8z"></path></symbol>
    <symbol xmlns="http://www.w3.org/2000/svg" id="facebook" viewBox="0 0 24 24"><path d="M24 12.073c0-6.627-5.373-12-12-12s-12 5.373-12 12c0 5.99 4.388 10.954 10.125 11.854v-8.385H7.078v-3.47h3.047V9.43c0-3.007 1.792-4.669 4.533-4.669 1.312 0 2.686.235 2.686.235v2.953H15.83c-1.491 0-1.956.925-1.956 1.874v2.25h3.328l-.532 3.47h-2.796v8.385C19.612 23.027 24 18.062 24 12.073z"/></symbol>
    <symbol xmlns="http://www.w3.org/2000/svg" id="deviantart" viewBox="0 0 24 24"><path d="M19.207 4.794l.23-.43V0H15.07l-.436.44-2.058 3.925-.646.436H4.58v5.993h4.04l.36.436-4.175 7.98-.24.43V24H8.93l.436-.44 2.07-3.925.644-.436h7.35v-5.993h-4.05l-.36-.438 4.186-7.977z"/></symbol>
    <symbol xmlns="http://www.w3.org/2000/svg" id="twitter" viewBox="0 0 24 24"><path d="M23.953 4.57a10 10 0 01-2.825.775 4.958 4.958 0 002.163-2.723c-.951.555-2.005.959-3.127 1.184a4.92 4.92 0 00-8.384 4.482C7.69 8.095 4.067 6.13 1.64 3.162a4.822 4.822 0 00-.666 2.475c0 1.71.87 3.213 2.188 4.096a4.904 4.904 0 01-2.228-.616v.06a4.923 4.923 0 003.946 4.827 4.996 4.996 0 01-2.212.085 4.936 4.936 0 004.604 3.417 9.867 9.867 0 01-6.102 2.105c-.39 0-.779-.023-1.17-.067a13.995 13.995 0 007.557 2.209c9.053 0 13.998-7.496 13.998-13.985 0-.21 0-.42-.015-.63A9.935 9.935 0 0024 4.59z"/></symbol>
</svg>